<svg id="color" enable-background="new 0 0 24 24" height="512" viewBox="0 0 24 24" width="512" xmlns="http://www.w3.org/2000/svg"><path d="m14 22h-11c-1.654 0-3-1.346-3-3v-16-.001c.001-1.654 1.346-2.999 3-2.999h11c.552 0 1 .448 1 1v3h1c.552 0 1 .448 1 1v14c0 1.654-1.346 3-3 3zm-11-20c-.551 0-1 .449-1 1s.449 1 1 1h10v-2z" fill="#607d8b"/><path d="m8.5 0h-5.5c-1.654 0-2.999 1.345-3 2.999v.001 16c0 1.654 1.346 3 3 3h5.5v-18h-5.5c-.551 0-1-.449-1-1s.449-1 1-1h5.5z" fill="#546d79"/><path d="m21 24h-.76c-2.701 0-4.285-.674-4.988-1.076-.154-.088-.251-.253-.252-.432l-.03-5.65c-.001-.173.089-.335.235-.427.407-.254 1.734-1.166 1.734-2.246 0-.617 0-1.9 1.201-1.9.804 0 1.67.738 1.67 2.36 0 .553-.096 1.017-.207 1.37h1.986c1.329 0 2.41 1.081 2.41 2.41 0 .032-.124 2.54-.61 3.563l.044.007c-.187 1.153-1.234 2.021-2.433 2.021z" fill="#ffcc80"/><path d="m14.5 24h-1c-.827 0-1.5-.673-1.5-1.5v-5c0-.827.673-1.5 1.5-1.5h1c.827 0 1.5.673 1.5 1.5v5c0 .827-.673 1.5-1.5 1.5z" fill="#2196f3"/><path d="m23.855 20h-7.855v2.5c0 .256-.064.497-.178.708.857.374 2.291.792 4.418.792h.76c1.199 0 2.246-.868 2.434-2.02l-.044-.007c.224-.471.371-1.258.465-1.973z" fill="#deb26f"/><path d="m16 20h-4v2.5c0 .827.673 1.5 1.5 1.5h1c.571 0 1.069-.321 1.322-.792.114-.211.178-.452.178-.708z" fill="#1d83d4"/></svg>